<?xml version="1.0" encoding="utf-8"?>
<svg class="logoe" viewBox="50 50 500 270" xmlns="http://www.w3.org/2000/svg">
  <defs>
  <style type="text/css">
   @font-face {
    font-family: 'zen_kurenaidoregular';
    src: url('../css/fonts/zenkurenaido-regular-webfont.woff2') format('woff2'),
         url('../css/fonts/zenkurenaido-regular-webfont.woff') format('woff');
    font-weight: normal;
    font-style: normal;
  }
  
  .logoe {
    font-family: 'zen_kurenaidoregular';
  }
  </style>
    <linearGradient gradientUnits="userSpaceOnUse" x1="159.563" y1="133.941" x2="159.563" y2="186.536" id="gradient-1" spreadMethod="pad" gradientTransform="matrix(1, 0, 0, 1, 49.789622, 86.255257)">
      <stop offset="0" style="stop-color: rgb(169, 161, 70);"/>
      <stop offset="1" style="stop-color: rgb(89, 73, 27);"/>
    </linearGradient>
    <linearGradient gradientUnits="userSpaceOnUse" x1="201.256" y1="39.954" x2="201.256" y2="163.376" id="gradient-0" gradientTransform="matrix(1, 0, 0, 1, 47.685833, 82.047684)">
      <stop offset="0" style="stop-color: rgb(3, 3, 31);"/>
      <stop offset="1" style="stop-color: rgb(11, 7, 37);"/>
    </linearGradient>
    <linearGradient x1="-0.186" x2="-0.186" y1="0.028" y2="1.028" id="gradient-4" gradientTransform="matrix(0.998247, 0.06147, -0.057587, 1.008972, 0, 0)">
      <stop offset="0" style="stop-color: rgb(169, 161, 70);"/>
      <stop offset="1" style="stop-color: rgb(159, 132, 51);"/>
    </linearGradient>
    <linearGradient gradientUnits="userSpaceOnUse" x1="-2.103" y1="146.523" x2="-2.103" y2="389.16" id="gradient-2" gradientTransform="matrix(0.259843, 0, 0, 0.206326, 101.014554, 61.065027)">
      <stop offset="0" style="stop-color: rgb(141, 133, 40);"/>
      <stop offset="0.961" style="stop-color: rgb(45, 42, 11);"/>
      <stop offset="1" style="stop-color: rgba(36, 34, 10, 1)"/>
    </linearGradient>
  </defs>
  <text style="fill: url(#gradient-0); font-family: &quot;zen_kurenaidoregular&quot;; font-size: 85px; font-weight: 700; letter-spacing: 6px; stroke: rgb(8, 2, 31); text-transform: uppercase; white-space: pre;" x="106.456" y="220.88">ERALYT</text>
  <text style="fill: url(#gradient-1); font-family: &quot;zen_kurenaidoregular&quot;; font-size: 36px; font-weight: 700; letter-spacing: 5px; paint-order: fill; stroke: rgb(65, 63, 26); white-space: pre;" x="169.004" y="262.273">DATA</text>
  <g transform="matrix(0.534462, 0, 0, 0.523607, 67.951286, -69.154846)" style="">
    <path style="fill: url(#gradient-4); stroke: rgb(65, 63, 26); paint-order: fill;" d="M 120.482 414.082 C 118.897 416.526 132.833 382.204 123.901 369.903 C 125.11 363.286 130.978 368.964 135.523 375.286 C 140.968 376.293 138.162 335.279 144.751 336.2 C 149.048 336.57 156.067 344.767 154.324 357.724 C 156.013 359.558 166.852 337.108 165.261 333.084 C 163.983 327.006 174.221 313.378 176.541 313.827 C 176.943 310.226 187.903 308.025 188.161 311.279 C 197.419 311.2 177.311 335.036 186.456 331.949 C 201.976 316.116 250.508 313.794 248.323 320.058 C 237.283 320.57 220.211 327.19 201.491 338.317 C 173.205 355.127 141.158 382.223 120.482 414.082 Z"/>
  </g>
  <path style="stroke: rgb(65, 63, 26); paint-order: fill; fill: url(#gradient-2);" d="M 132.539 148.83 C 141.798 128.039 167.65 107.306 184.532 102.076 C 188.928 100.715 200.701 97.34 201.964 98.916 C 200.207 100.804 203.123 103.413 192.853 105.343 C 190.181 105.845 184.933 108.217 181.148 109.299 C 170.467 112.352 173.388 117.071 182.285 116.252 C 189.007 115.633 196.799 119.975 192.307 122.976 C 182.323 129.645 156.897 122.174 162.814 126.351 C 168.411 130.302 179.704 141.621 160.054 135.53 C 148.996 129.379 132.627 149.064 132.539 148.83 Z"/>
</svg>
